<svg width="500" height="500" xmlns="http://www.w3.org/2000/svg" xmlns:svg="http://www.w3.org/2000/svg" preserveAspectRatio="xMidYMid meet" version="1.0">
 <g class="layer">
  <title>Layer 1</title>
  <g fill="#000000" id="svg_1" transform="translate(44.1873 25.1713) scale(0.978811 0.830807) translate(-44.1873 -25.1713)">
   <path d="m99.81,26.24c-0.85,0.55 -2.32,1.32 -3.29,1.75c-0.97,0.39 -1.82,0.77 -1.9,0.82c-0.04,0.08 0.24,0.54 0.71,1.04c0.43,0.5 0.91,1.67 1.04,2.63c0.29,2.18 1.54,21.36 1.38,21.53c-0.08,0.08 -0.47,0.05 -0.9,-0.07c-0.94,-0.33 -1.42,-1.49 -2.52,-6.3c-0.98,-4.31 -1.46,-5.39 -3.03,-6.97c-2.24,-2.24 -5.8,-3.13 -9.45,-2.3c-2.8,0.61 -5.55,2.4 -6.58,4.22l-0.73,1.31l1.93,1.91l1.93,1.91l0.81,-1.14c1.88,-2.66 5.31,-3.2 7.43,-1.21l1.26,1.16l-1.91,0.35c-2.57,0.4 -4.43,1.51 -6.12,3.58c-2.54,3.13 -2.62,7.15 -0.18,9.77c0.95,1 1.41,1.16 3.25,1.14c2.84,-0.03 3.73,-1 5.09,-5.54l1.09,-3.53l0.69,2.51c0.69,2.34 2.15,4.38 3.16,4.37c0.19,0 1.24,-0.85 2.24,-1.91c2.08,-2.16 2.55,-2.33 2.21,-0.94c-0.19,0.97 -0.19,0.97 3.4,0.76c1.99,-0.1 3.66,-0.29 3.7,-0.37c0.08,-0.04 -0.05,-0.75 -0.25,-1.51c-0.24,-0.75 -0.58,-3.56 -0.72,-6.2l-0.32,-4.82l2.85,4.58c1.58,2.5 3.29,5.25 3.8,6.12l0.91,1.5l3.23,-0.24c1.79,-0.14 3.31,-0.33 3.39,-0.41c0.08,-0.08 -1.51,-2.75 -3.49,-6c-1.98,-3.21 -3.61,-5.96 -3.61,-6.17c0,-0.17 1.11,-2.36 2.48,-4.89c1.38,-2.53 2.45,-4.68 2.33,-4.76c-0.12,-0.12 -1.64,-0.03 -3.43,0.16l-3.23,0.41l-2.49,4.51c-2.95,5.35 -2.79,5.52 -3.31,-3.91c-0.38,-6.79 -0.72,-9.97 -1.07,-9.92c-0.12,0 -0.93,0.51 -1.78,1.07zm-11.43,22.37c0.12,0.67 0.33,1.51 0.41,1.88c0.44,1.63 -1.6,4.08 -3.35,4.14c-1.48,0.01 -2.07,-0.94 -1.82,-2.96c0.39,-3.4 4.15,-5.83 4.76,-3.07z" id="svg_2" data-index="0" style="visibility: visible;"></path>
   <path d="m147,30.13c-0.62,0.17 -2.3,0.36 -3.66,0.41c-2.45,0.07 -2.49,0.07 -1.82,0.86c1.03,1.21 0.74,3.51 -1.55,12.93c-2.13,8.82 -2.38,11.51 -1.19,13.64c1.11,2.04 3.74,3.32 6.46,3.12c1.21,-0.1 2.1,-0.02 2.03,0.11c-0.11,0.21 3.17,1.81 6.34,3.12c0.27,0.08 0.54,-0.47 0.69,-1.35c0.44,-2.56 3.98,-11.32 5.02,-12.33c0.54,-0.51 1.47,-0.94 2.13,-0.94c1.29,-0.01 2.7,1.27 2.71,2.45c0.01,1.13 -4.06,11.36 -5.17,12.92l-0.88,1.35l3.29,1.48c1.8,0.82 3.37,1.48 3.48,1.47c0.12,0 0.23,-0.51 0.22,-1.09c-0.01,-0.63 1.21,-4.2 2.65,-7.99c3.12,-8.04 3.37,-10.09 1.55,-12.38c-1.1,-1.37 -3.02,-2.44 -4.39,-2.43c-0.43,0 -1.82,0.94 -3.1,2.13c-1.27,1.14 -2.43,2.12 -2.51,2.12c-0.12,0 0.22,-1.09 0.76,-2.44c1.6,-3.87 1.68,-3.66 -1.17,-3.51c-1.36,0.1 -3.39,-0.01 -4.52,-0.21c-1.87,-0.36 -1.99,-0.32 -1.4,0.35c0.32,0.37 0.6,1.29 0.6,2.05c0.01,1.34 -4.05,12.2 -5.12,13.8c-0.5,0.68 -0.54,0.51 -0.6,-1.67c-0.02,-2.1 -0.14,-2.43 -0.69,-2.34c-0.39,0.09 -1.17,0.01 -1.76,-0.15c-1.8,-0.49 -1.76,-0.86 1.53,-14.64c1.42,-5.97 2.58,-10.92 2.58,-11.05c0,-0.29 -1.05,-0.2 -2.53,0.23z" id="svg_3" data-index="1" style="opacity: 1;"></path>
   <path d="m121.33,35.16c-2.64,1.33 -2.67,1.49 -1.52,4.25c0.6,1.38 1.16,2.59 1.23,2.67c0.08,0.08 0.5,-0.17 0.93,-0.6c1.08,-1.06 4.23,-1.34 5.76,-0.52c1.14,0.62 2.44,2.49 2.45,3.54c0,0.25 -0.62,0.13 -1.44,-0.24c-3.68,-1.6 -9.27,0.93 -10.55,4.72c-1.14,3.28 -0.01,6.5 2.61,7.65c2.78,1.23 3.67,0.68 7.56,-4.39l1.35,-1.73l-0.13,2.81c-0.16,3.82 0.32,4.82 2.23,4.5c0.82,-0.13 2.49,-0.65 3.77,-1.21c2.1,-0.86 2.21,-0.99 1.47,-1.36c-1.33,-0.62 -1.46,-1.62 -0.97,-7.24c0.42,-4.66 0.41,-5.29 -0.23,-7.04c-0.88,-2.42 -3.52,-4.87 -6.18,-5.77c-2.39,-0.81 -6.71,-0.81 -8.34,-0.04zm8.65,12.07c0.02,1.68 -0.17,2.22 -1.06,3.03c-1.39,1.31 -3.45,1.38 -4.28,0.17c-0.48,-0.75 -0.52,-1.13 -0.1,-2.22c0.61,-1.72 2.77,-3.3 4.29,-3.14c1.13,0.11 1.17,0.2 1.15,2.17z" id="svg_4" data-index="2" style="visibility: visible;"></path>
   <path d="m65.59,45.4l-2,2.74l1.13,-0.01c0.78,-0.01 1.45,0.36 2.16,1.24c1.14,1.46 1.51,3.13 1.39,6.15l-0.1,2.14l-3.7,-4.2c-5.56,-6.32 -6.14,-6.48 -9.07,-2.47c-1.61,2.24 -1.77,2.57 -0.99,2.4c1.48,-0.35 3.29,1.6 3.78,4.07c0.45,2.13 0.64,5.4 0.29,5.4c-0.19,0 -4.1,-4.28 -7.53,-8.22l-1.58,-1.83l-2.6,1.41c-1.43,0.77 -2.6,1.53 -2.59,1.7c0,0.13 3.27,3.95 7.29,8.44l7.33,8.14l2.29,-1.28l2.33,-1.28l0.01,-3.27c-0.01,-5.16 0.14,-5.24 2.9,-2.08l2.37,2.7l2.29,-1.32l2.32,-1.36l-0.08,-7.96c-0.08,-7.8 -0.12,-8.01 -1.15,-10.26c-1.03,-2.17 -2.69,-3.75 -3.93,-3.73c-0.31,0 -1.43,1.23 -2.54,2.75z" id="svg_5" data-index="3" style="visibility: visible;"></path>
   <path d="m180.11,44.22c-2.21,1.36 -2.6,4.68 -0.79,6.59c1.58,1.66 3.48,1.64 5.18,-0.05c3.32,-3.26 -0.48,-8.92 -4.39,-6.54z" id="svg_6" data-index="4" style="visibility: visible;"></path>
   <path d="m173.07,53.38c0.95,1.08 0.54,3.1 -1.45,6.89c-2.87,5.52 -5.24,9.48 -5.71,9.49c-0.82,0.01 -0.34,0.72 0.91,1.37c0.67,0.37 2.16,1.24 3.21,1.9l2,1.24l0.07,-1.13c0.03,-0.63 2.21,-5.05 4.85,-9.86c4.63,-8.51 4.71,-8.77 3.69,-8.76c-1.33,-0.03 -6.24,-0.94 -7.3,-1.39c-0.63,-0.29 -0.7,-0.24 -0.27,0.25z" id="svg_7" data-index="5" style="visibility: visible; opacity: 1;"></path>
   <path d="m107.02,64.81c-0.67,2.86 -1.11,5.92 -1.45,10.54c-0.31,4.15 -1.17,7.81 -2.73,11.76c-0.3,0.76 -0.65,1.22 -0.77,1.01c-0.16,-0.25 -0.66,-3.81 -1.13,-7.91c-0.51,-4.1 -1.01,-7.62 -1.17,-7.79c-0.39,-0.37 -4.32,0.5 -5.87,1.32c-0.74,0.38 -1.66,1.23 -2.05,1.82c-1.08,1.56 -1.31,5.67 -0.5,8.26c0.72,2.21 0.54,3.68 -0.64,5.71c-0.88,1.48 -1.82,1.4 -3.12,-0.22c-1.34,-1.66 -1.5,-2.08 -3.45,-9.48c-2.31,-8.65 -3.42,-10.53 -6.07,-10.59c-1.71,-0.02 -3.1,1.29 -4.17,3.94c-0.76,1.89 -0.8,1.89 -1.24,0.85c-0.84,-1.96 -0.96,-2.09 -2.2,-1.57c-0.82,0.3 -1.16,0.72 -1.16,1.35c0.01,1.34 3.53,14.51 4.74,17.73c1.36,3.68 1.79,4.13 3.11,3.45c0.81,-0.39 0.97,-0.68 0.77,-1.43c-0.16,-0.5 -1.01,-3.85 -1.91,-7.4c-1.74,-6.82 -1.84,-8.7 -0.83,-12.48c0.49,-1.93 1.68,-3.58 2.38,-3.34c0.98,0.33 2.34,3.79 3.68,9.23c1.71,6.94 2.74,9.49 4.48,11.11c1.46,1.37 2.28,1.49 4.14,0.63c1.44,-0.64 2.51,-2.16 2.8,-4.01c0.19,-0.97 0.49,-1.3 1.27,-1.4c0.78,-0.09 1.24,-0.6 2,-2.41l0.99,-2.23l0.73,2.97c0.86,3.68 2.04,5.64 3.45,5.79c1.72,0.19 2.57,-0.61 3.47,-3.43c0.68,-1.98 0.91,-2.36 1,-1.56c0.52,4.77 0.44,4.61 2.11,4.59c1.4,-0.01 1.52,-0.1 1.51,-1.19c-0.01,-1.38 0.6,-2.19 1.73,-2.2c1.21,-0.01 4.3,-2.31 4.99,-3.7c1.03,-2.06 1.22,-2.28 2.7,-2.67c1.28,-0.31 1.4,-0.27 1.41,0.57c0.02,1.8 0.94,4.18 2,5.35c0.91,0.91 1.49,1.16 2.82,1.15c1.52,-0.02 1.91,-0.23 3.6,-2.13c2.12,-2.37 2.47,-2.54 2.25,-1.15c-0.26,1.43 0.58,3.18 1.71,3.63c1.72,0.7 3.47,-0.24 5.31,-2.78c0.88,-1.27 1.73,-2.28 1.89,-2.28c0.16,-0.04 -0.14,1.34 -0.67,2.98c-1.32,4.33 -1.56,7.64 -0.65,8.73c0.39,0.46 1.22,0.83 1.84,0.82c0.86,-0.01 1.36,-0.43 2.32,-1.91c1.34,-2.07 1.85,-2.37 1.86,-1.07c0.01,0.5 0.44,1.34 0.99,1.88c1.18,1.29 3.36,1.35 5.07,0.24c1.55,-1.06 5.21,-5.17 5.2,-5.88c-0.01,-0.96 -0.63,-0.58 -3.14,1.96c-2.62,2.58 -4.48,3.86 -5.26,3.57c-0.63,-0.25 -0.7,-3.3 -0.14,-5.83c0.37,-1.6 0.8,-2.19 2.61,-3.63c3.33,-2.63 7.33,-7.12 8.36,-9.31c2.29,-4.97 -0.16,-8.42 -4.39,-6.16c-3.57,1.92 -7.51,8.63 -9,15.39c-0.56,2.44 -1.24,4.12 -2.55,6.19c-0.96,1.6 -1.84,2.87 -1.92,2.87c-0.35,0 0.4,-3.02 2.44,-9.75c1.17,-3.87 2.03,-7.1 1.95,-7.23c-0.12,-0.08 -0.63,-0.29 -1.17,-0.45c-0.9,-0.2 -1.28,0.14 -3.47,3.26c-3.31,4.64 -5.35,7.1 -6.05,7.1c-0.82,0.01 -0.34,-3.06 1.43,-8.78c0.83,-2.61 1.43,-4.79 1.35,-4.88c-0.08,-0.04 -0.7,-0.24 -1.41,-0.41c-1.21,-0.24 -1.29,-0.2 -2.01,1.65c-0.38,1.05 -0.91,2.73 -1.17,3.7c-0.34,1.34 -1.26,2.7 -3.38,5.11c-4.05,4.53 -4.91,4.24 -5.08,-1.58l-0.06,-2.1l1.94,-0.9c1.67,-0.77 2.09,-1.24 2.74,-2.88c0.68,-1.68 0.72,-2.15 0.28,-3.19c-1.6,-4.09 -6.56,-1.36 -7.98,4.4c-0.45,1.77 -0.79,2.44 -1.34,2.49c-0.39,0.05 -0.93,0.09 -1.17,0.14c-0.31,0.05 -0.59,-0.79 -0.8,-2.26c-0.47,-3.89 -2.74,-4.84 -5.75,-2.37l-1.7,1.36l0.21,-6.16l0.25,-6.16l-1.4,0.01c-1.25,0.01 -1.4,0.14 -1.78,1.61zm49.94,6.21c0.02,2.1 -1.89,5.55 -4.9,8.77c-4.09,4.44 -4.44,4.24 -2.04,-1.2c2.82,-6.36 6.91,-10.84 6.94,-7.57zm-30.37,2.23c0.01,0.92 -0.33,1.89 -0.99,2.73c-1.85,2.45 -2.25,1.49 -0.76,-1.96c1.07,-2.53 1.73,-2.83 1.75,-0.77zm-29.87,1.6c0.44,1.17 -2.2,10 -2.9,9.75c-0.59,-0.2 -0.79,-4.48 -0.3,-6.49c0.67,-2.9 2.64,-4.89 3.2,-3.26zm17.73,-0.3c0.63,0.66 0.62,3.77 0.05,4.61c-0.27,0.38 -1.51,1.1 -2.71,1.58c-2.6,0.99 -2.76,0.74 -1.5,-2.04c0.8,-1.73 2.95,-4.64 3.42,-4.65c0.16,0 0.47,0.2 0.75,0.5zm-1.01,7.89c-0.61,1.26 -3.17,3.05 -3.64,2.55c-0.59,-0.62 0.1,-1.64 1.69,-2.62c1.82,-1.07 2.48,-1.03 1.95,0.06z" id="svg_8" data-index="6" style="visibility: visible; opacity: 1;"></path>
   <path d="m116.26,93.18c-0.54,0.09 -2.37,0.69 -4.08,1.34c-2.64,0.99 -3.41,1.54 -5.26,3.57c-1.39,1.56 -2.66,2.54 -3.67,2.85c-4.89,1.56 -16.49,2.93 -21.37,2.56c-2.61,-0.23 -3.24,-0.14 -3.66,0.41c-0.85,1.1 -0.29,2.1 1.75,3.17c4.7,2.43 14.62,1.11 24.21,-3.22c1.05,-0.47 1.59,-0.48 3.12,-0.03c4.06,1.22 5.39,0.95 11.79,-2.21c2.21,-1.11 3.87,-2.68 3.4,-3.18c-0.08,-0.04 -1.32,0.35 -2.8,0.95c-3.3,1.33 -5.67,1.94 -5.68,1.44c-0.01,-0.5 2.44,-1.78 5.54,-2.95c2.64,-0.95 3.45,-1.79 2.66,-2.63c-0.32,-0.33 -1.4,-0.11 -4.04,0.88c-3.45,1.33 -5.63,1.77 -5.21,1.06c0.08,-0.17 1.94,-1.07 4.07,-2.01c4.58,-1.97 4.22,-2.93 -0.76,-2z" id="svg_9" data-index="7" style="visibility: visible; opacity: 1; stroke-width: 2px;"></path>
   <path d="m131.67,99.07c-0.38,0.72 0.52,1.5 1.06,0.91c0.46,-0.51 0.14,-1.38 -0.44,-1.38c-0.19,0 -0.47,0.21 -0.62,0.47z" id="svg_10" data-index="8" style="visibility: visible;"></path>
   <path d="m145.37,101.24c-6.77,4.72 -20.66,10.6 -23.21,9.79c-0.47,-0.12 -1.8,-0.69 -2.94,-1.27c-4.19,-2.14 -9.76,-1.54 -12.73,1.34c-3.28,3.13 -1.33,7.06 4.18,8.51c4.42,1.17 8.65,-0.17 11.65,-3.68c1.54,-1.86 1.97,-2.12 3.87,-2.39c8.29,-1.21 17.6,-5.12 20.84,-8.63c1.43,-1.57 1.69,-2.11 1.57,-3.24c-0.17,-1.76 -1.19,-1.87 -3.24,-0.43zm-27.29,10.75c1.53,0.82 1.22,1.08 -0.7,0.55c-2.15,-0.65 -5.73,-0.15 -7.94,1.04c-1.12,0.6 -1.78,0.81 -1.67,0.48c0.27,-0.72 2.63,-2.29 4.14,-2.72c1.59,-0.44 4.75,-0.13 6.16,0.65z" id="svg_11" data-index="9" style="visibility: visible; opacity: 1;"></path>
   <path d="m123.85,104.22c-0.96,1.06 -0.21,2.85 1.2,2.84c0.35,0 0.85,-0.39 1.08,-0.85c0.84,-1.69 -1.05,-3.34 -2.28,-1.99z" id="svg_12" data-index="10" style="visibility: visible; opacity: 1;"></path>
   <path d="m97.63,112.28c-1.27,1.52 -0.27,3.86 1.6,3.84c0.97,-0.01 2.05,-1.28 2.04,-2.41c-0.02,-1.93 -2.44,-2.87 -3.64,-1.43z" id="svg_13" data-index="11" style="visibility: visible;"></path>
   <path d="m128.24,121.91c-0.23,0.34 -0.34,0.97 -0.18,1.47c0.4,1.3 2.31,0.98 2.45,-0.4c0.22,-1.55 -1.35,-2.29 -2.27,-1.07z" id="svg_14" data-index="12" style="visibility: visible;"></path>
   <path d="m103.2,124.17c-0.3,0.88 0.33,1.63 1.14,1.46c1.05,-0.22 0.96,-1.77 -0.1,-1.93c-0.47,-0.08 -0.93,0.14 -1.05,0.47z" id="svg_15" data-index="13" style="visibility: visible;"></path>
  </g>
 </g>
</svg>